<svg width="448" height="43" viewBox="0 0 448 43" fill="none" xmlns="http://www.w3.org/2000/svg">
<path d="M406 1H447V42H406V1Z" fill="black" fill-opacity="0.5"/>
<path d="M244 1H285V42H244V1Z" fill="black"/>
<path d="M366 1H406V42H366V1Z" fill="#05AFC6" fill-opacity="0.5"/>
<path d="M325 1H366V42H325V1Z" fill="#BB38AE" fill-opacity="0.5"/>
<path d="M285 1H325V42H285V1Z" fill="#EDFF1B" fill-opacity="0.5"/>
<path d="M204 1H244V42H204V1Z" fill="#B80B0B"/>
<path d="M163 1H204V42H163V1Z" fill="#199216"/>
<path d="M123 1H163V42H123V1Z" fill="#0C2992"/>
<path d="M82 1H123V42H82V1Z" fill="#05AFC6"/>
<path d="M42 1H82V42H42V1Z" fill="#BB38AE"/>
<path d="M1 1H42V42H1V1Z" fill="#EDFF1B"/>
<path d="M406 1H447V42H406M406 1V42M406 1H366M406 42H366M244 1H285M244 1V42M244 1H204M285 1V42M285 1H325M285 42H244M285 42H325M244 42H204M366 1V42M366 1H325M366 42H325M325 1V42M204 1V42M204 1H163M204 42H163M163 1V42M163 1H123M163 42H123M123 1V42M123 1H82M123 42H82M82 1V42M82 1H42M82 42H42M42 1V42M42 1H1V42H42" stroke="black"/>
</svg>
