<svg id="visual" viewBox="0 0 2560 400" width="2560" height="400" xmlns="http://www.w3.org/2000/svg" xmlns:xlink="http://www.w3.org/1999/xlink" version="1.1"><rect x="0" y="0" width="2560" height="400" fill="#4d4f51"></rect><g fill="#2f3337"><circle r="27" cx="1756" cy="114"></circle><circle r="11" cx="2404" cy="75"></circle><circle r="11" cx="1297" cy="252"></circle><circle r="19" cx="1582" cy="175"></circle><circle r="20" cx="2078" cy="204"></circle><circle r="21" cx="1958" cy="33"></circle><circle r="10" cx="1581" cy="284"></circle><circle r="21" cx="497" cy="117"></circle><circle r="12" cx="78" cy="221"></circle><circle r="21" cx="2268" cy="237"></circle><circle r="11" cx="1412" cy="326"></circle><circle r="12" cx="2098" cy="322"></circle><circle r="24" cx="921" cy="370"></circle><circle r="19" cx="2456" cy="115"></circle><circle r="21" cx="2215" cy="67"></circle><circle r="20" cx="1565" cy="84"></circle><circle r="12" cx="2468" cy="251"></circle><circle r="20" cx="2278" cy="319"></circle><circle r="15" cx="178" cy="334"></circle><circle r="16" cx="918" cy="259"></circle><circle r="10" cx="1814" cy="271"></circle><circle r="20" cx="1946" cy="124"></circle><circle r="17" cx="474" cy="46"></circle><circle r="12" cx="2435" cy="323"></circle><circle r="18" cx="552" cy="234"></circle><circle r="15" cx="661" cy="109"></circle><circle r="24" cx="727" cy="216"></circle><circle r="22" cx="874" cy="220"></circle><circle r="23" cx="311" cy="46"></circle><circle r="13" cx="2007" cy="174"></circle><circle r="10" cx="1668" cy="117"></circle><circle r="19" cx="827" cy="34"></circle><circle r="25" cx="1671" cy="226"></circle><circle r="10" cx="329" cy="136"></circle><circle r="12" cx="1256" cy="30"></circle></g></svg>