<svg id="visual" viewBox="0 0 900 600" width="900" height="600" xmlns="http://www.w3.org/2000/svg" xmlns:xlink="http://www.w3.org/1999/xlink" version="1.1"><rect x="0" y="0" width="900" height="600" fill="#2f3337"></rect><g fill="#4d4f51"><circle r="15" cx="763" cy="47"></circle><circle r="5" cx="16" cy="456"></circle><circle r="5" cx="894" cy="123"></circle><circle r="11" cx="52" cy="183"></circle><circle r="5" cx="266" cy="406"></circle><circle r="9" cx="183" cy="335"></circle><circle r="4" cx="216" cy="441"></circle><circle r="10" cx="420" cy="348"></circle><circle r="11" cx="692" cy="312"></circle><circle r="4" cx="226" cy="255"></circle><circle r="5" cx="810" cy="129"></circle><circle r="6" cx="645" cy="213"></circle><circle r="8" cx="640" cy="284"></circle><circle r="12" cx="132" cy="449"></circle><circle r="11" cx="358" cy="474"></circle><circle r="10" cx="377" cy="313"></circle><circle r="7" cx="721" cy="583"></circle><circle r="12" cx="738" cy="87"></circle><circle r="7" cx="267" cy="544"></circle><circle r="4" cx="213" cy="396"></circle><circle r="12" cx="404" cy="69"></circle><circle r="13" cx="447" cy="484"></circle><circle r="6" cx="875" cy="330"></circle><circle r="13" cx="683" cy="220"></circle><circle r="9" cx="495" cy="444"></circle><circle r="11" cx="661" cy="494"></circle><circle r="12" cx="809" cy="26"></circle><circle r="11" cx="721" cy="256"></circle><circle r="8" cx="675" cy="39"></circle><circle r="11" cx="434" cy="442"></circle><circle r="9" cx="847" cy="587"></circle><circle r="12" cx="325" cy="56"></circle><circle r="8" cx="103" cy="437"></circle><circle r="6" cx="730" cy="473"></circle><circle r="6" cx="818" cy="372"></circle><circle r="7" cx="590" cy="250"></circle><circle r="7" cx="323" cy="277"></circle><circle r="9" cx="739" cy="324"></circle><circle r="9" cx="832" cy="51"></circle><circle r="8" cx="797" cy="290"></circle><circle r="11" cx="150" cy="250"></circle><circle r="5" cx="218" cy="208"></circle><circle r="7" cx="771" cy="88"></circle><circle r="12" cx="483" cy="341"></circle><circle r="10" cx="299" cy="72"></circle><circle r="6" cx="336" cy="175"></circle><circle r="13" cx="886" cy="363"></circle></g></svg>